<svg width="308" height="131" viewBox="0 0 308 131" fill="none" xmlns="http://www.w3.org/2000/svg">
<rect width="308" height="131" fill="white"/>
<g filter="url(#filter0_d_0_1)">
<rect x="4" width="300" height="50" rx="5" fill="#C27039"/>
<rect x="4.5" y="0.5" width="299" height="49" rx="4.5" stroke="#C27039"/>
</g>
<path d="M124.51 18.02H125.725C125.725 21.935 124.405 25.535 119.545 27.95L118.87 26.99C123.16 24.875 124.51 21.845 124.51 18.155V18.02ZM119.605 18.02H125.245V19.025H119.605V18.02ZM124.315 21.38V22.34L119.125 22.85L118.93 21.74L124.315 21.38ZM127.915 16.595H129.175V30.17H127.915V16.595ZM128.83 22.1H131.335V23.135H128.83V22.1ZM134.094 23.105H143.409V24.125H134.094V23.105ZM132.549 27.305H144.834V28.34H132.549V27.305ZM134.094 17.855H143.274V18.89H135.339V23.555H134.094V17.855ZM150.653 17.825H156.878V24.11H150.653V17.825ZM155.663 18.83H151.868V23.105H155.663V18.83ZM159.368 16.595H160.613V26.54H159.368V16.595ZM160.223 20.735H162.623V21.77H160.223V20.735ZM152.168 28.85H161.228V29.87H152.168V28.85ZM152.168 25.595H153.413V29.285H152.168V25.595ZM163.896 22.265H176.151V23.285H163.896V22.265ZM165.516 20.165H174.696V21.17H165.516V20.165ZM165.516 17.045H174.546V18.065H166.746V20.975H165.516V17.045ZM165.366 24.455H174.576V27.65H166.626V29.36H165.396V26.72H173.346V25.43H165.366V24.455ZM165.396 29.03H174.981V30.02H165.396V29.03ZM187.565 16.61H188.81V30.17H187.565V16.61ZM183.59 18.065H184.82C184.82 21.995 183.05 25.43 178.52 27.65L177.86 26.645C181.775 24.755 183.59 21.875 183.59 18.275V18.065ZM178.475 18.065H184.13V19.085H178.475V18.065Z" fill="white"/>
<rect x="14.5" y="8.5" width="279" height="34" rx="4.5" stroke="white" stroke-dasharray="5 5"/>
<rect x="14.5" y="96.5" width="279" height="34" rx="4.5" stroke="white" stroke-dasharray="5 5"/>
<defs>
<filter id="filter0_d_0_1" x="0" y="0" width="308" height="58" filterUnits="userSpaceOnUse" color-interpolation-filters="sRGB">
<feFlood flood-opacity="0" result="BackgroundImageFix"/>
<feColorMatrix in="SourceAlpha" type="matrix" values="0 0 0 0 0 0 0 0 0 0 0 0 0 0 0 0 0 0 127 0" result="hardAlpha"/>
<feOffset dy="4"/>
<feGaussianBlur stdDeviation="2"/>
<feComposite in2="hardAlpha" operator="out"/>
<feColorMatrix type="matrix" values="0 0 0 0 0 0 0 0 0 0 0 0 0 0 0 0 0 0 0.25 0"/>
<feBlend mode="normal" in2="BackgroundImageFix" result="effect1_dropShadow_0_1"/>
<feBlend mode="normal" in="SourceGraphic" in2="effect1_dropShadow_0_1" result="shape"/>
</filter>
</defs>
</svg>
