<svg width="308" height="54" viewBox="0 0 308 54" fill="none" xmlns="http://www.w3.org/2000/svg">
<g filter="url(#filter0_d_34_28)">
<rect x="4" width="300" height="46" rx="5" fill="#C27039"/>
<rect x="4.5" y="0.5" width="299" height="45" rx="4.5" stroke="#C27039"/>
</g>
<path d="M132.625 23.764C132.738 23.7527 132.92 23.7357 133.169 23.713C133.43 23.679 133.673 23.6677 133.9 23.679C133.979 23.6903 134.081 23.7243 134.206 23.781C134.331 23.8377 134.444 23.9057 134.546 23.985C134.659 24.0643 134.756 24.1493 134.835 24.24C134.926 24.3307 134.977 24.4157 134.988 24.495C134.988 24.5517 134.971 24.6197 134.937 24.699C134.914 24.767 134.88 24.8407 134.835 24.92C134.801 24.988 134.761 25.056 134.716 25.124C134.671 25.192 134.637 25.243 134.614 25.277C134.58 25.3223 134.54 25.362 134.495 25.396C134.45 25.43 134.359 25.4527 134.223 25.464C134.144 25.464 134.025 25.464 133.866 25.464C133.707 25.464 133.543 25.4527 133.373 25.43C133.203 25.4073 133.044 25.3733 132.897 25.328C132.75 25.2827 132.648 25.226 132.591 25.158V26.501C132.591 26.8977 132.568 27.3227 132.523 27.776C132.489 28.218 132.421 28.6543 132.319 29.085C132.228 29.5157 132.109 29.9237 131.962 30.309C131.826 30.6943 131.656 31.0173 131.452 31.278C131.361 31.4027 131.282 31.4707 131.214 31.482C131.157 31.5047 131.101 31.499 131.044 31.465C131.01 31.4423 130.953 31.38 130.874 31.278C130.795 31.1873 130.738 31.0797 130.704 30.955C130.693 30.8983 130.698 30.8133 130.721 30.7C130.744 30.5867 130.772 30.4903 130.806 30.411C130.84 30.1617 130.868 29.8387 130.891 29.442C130.914 29.0567 130.931 28.6543 130.942 28.235C130.965 27.8043 130.976 27.385 130.976 26.977C130.987 26.569 130.993 26.212 130.993 25.906V18.647C130.936 18.613 130.857 18.5507 130.755 18.46C130.653 18.3693 130.534 18.2617 130.398 18.137C130.273 18.0123 130.149 17.882 130.024 17.746C129.899 17.5987 129.797 17.457 129.718 17.321C129.695 17.287 129.661 17.185 129.616 17.015C129.571 16.8337 129.559 16.6863 129.582 16.573C129.593 16.4937 129.622 16.4427 129.667 16.42C129.724 16.3973 129.775 16.3917 129.82 16.403C130.001 16.4257 130.205 16.4823 130.432 16.573C130.67 16.6523 130.902 16.7487 131.129 16.862C131.367 16.964 131.588 17.0773 131.792 17.202C131.996 17.3267 132.155 17.4343 132.268 17.525C132.438 17.661 132.54 17.797 132.574 17.933C132.608 18.069 132.625 18.2333 132.625 18.426V23.764ZM127.44 22.642C127.542 22.4153 127.633 22.2113 127.712 22.03C127.791 21.8373 127.842 21.6787 127.865 21.554C127.468 21.6447 127.038 21.7353 126.573 21.826C126.12 21.9053 125.695 21.962 125.298 21.996C125.151 22.0073 125.032 22.0073 124.941 21.996C124.862 21.9733 124.765 21.9337 124.652 21.877C124.561 21.8317 124.442 21.7637 124.295 21.673C124.159 21.571 124.017 21.469 123.87 21.367C123.734 21.2537 123.615 21.146 123.513 21.044C123.411 20.942 123.354 20.8627 123.343 20.806C123.332 20.772 123.343 20.7153 123.377 20.636C123.422 20.5567 123.473 20.5 123.53 20.466C123.575 20.4433 123.604 20.432 123.615 20.432C123.638 20.432 123.683 20.4377 123.751 20.449C123.989 20.483 124.182 20.5113 124.329 20.534C124.476 20.5453 124.658 20.5567 124.873 20.568C125.156 20.5793 125.462 20.5737 125.791 20.551C126.131 20.517 126.471 20.4773 126.811 20.432C127.151 20.3753 127.48 20.313 127.797 20.245C128.126 20.177 128.426 20.109 128.698 20.041C128.811 20.0183 128.908 20.0183 128.987 20.041C129.066 20.0523 129.157 20.1033 129.259 20.194C129.316 20.2507 129.378 20.33 129.446 20.432C129.525 20.534 129.605 20.6417 129.684 20.755C129.718 20.8117 129.741 20.874 129.752 20.942C129.763 20.9987 129.746 21.095 129.701 21.231C129.61 21.537 129.452 21.945 129.225 22.455C128.998 22.965 128.732 23.4977 128.426 24.053C128.131 24.597 127.814 25.1297 127.474 25.651C127.145 26.161 126.822 26.569 126.505 26.875C126.426 26.943 126.301 27.0337 126.131 27.147C125.972 27.249 125.797 27.351 125.604 27.453C125.423 27.555 125.236 27.6457 125.043 27.725C124.862 27.8043 124.709 27.8553 124.584 27.878C124.493 27.9007 124.38 27.9007 124.244 27.878C124.108 27.8553 123.972 27.8213 123.836 27.776C123.7 27.7307 123.581 27.6797 123.479 27.623C123.377 27.5663 123.32 27.5097 123.309 27.453C123.298 27.419 123.303 27.3623 123.326 27.283C123.349 27.2037 123.377 27.1583 123.411 27.147C123.615 27.0903 123.819 27.011 124.023 26.909C124.227 26.807 124.414 26.6993 124.584 26.586C124.754 26.4727 124.907 26.365 125.043 26.263C125.179 26.1497 125.281 26.059 125.349 25.991C125.564 25.7983 125.797 25.5093 126.046 25.124C126.307 24.7387 126.556 24.3307 126.794 23.9C126.148 24.036 125.491 24.2343 124.822 24.495C124.686 24.5517 124.578 24.58 124.499 24.58C124.42 24.58 124.318 24.563 124.193 24.529C124.102 24.5063 123.983 24.461 123.836 24.393C123.7 24.3137 123.564 24.2287 123.428 24.138C123.292 24.0473 123.167 23.9623 123.054 23.883C122.952 23.7923 122.895 23.7187 122.884 23.662C122.861 23.6393 122.861 23.594 122.884 23.526C122.918 23.458 122.952 23.4013 122.986 23.356C123.02 23.3107 123.048 23.288 123.071 23.288C123.105 23.288 123.156 23.288 123.224 23.288C123.439 23.2993 123.621 23.3107 123.768 23.322C123.915 23.322 124.085 23.3107 124.278 23.288C124.448 23.2767 124.663 23.2483 124.924 23.203C125.196 23.1577 125.479 23.1067 125.774 23.05C126.08 22.982 126.38 22.914 126.675 22.846C126.97 22.778 127.225 22.71 127.44 22.642ZM137.874 20.823C137.863 20.8117 137.8 20.806 137.687 20.806C137.574 20.7947 137.506 20.7777 137.483 20.755C137.404 20.6983 137.285 20.5963 137.126 20.449C136.967 20.2903 136.86 20.1487 136.803 20.024C136.78 19.99 136.797 19.939 136.854 19.871C136.911 19.803 136.979 19.7407 137.058 19.684C137.149 19.616 137.234 19.5593 137.313 19.514C137.404 19.4687 137.46 19.446 137.483 19.446C137.789 19.4687 138.118 19.4743 138.469 19.463C138.82 19.4403 139.177 19.412 139.54 19.378C139.914 19.344 140.277 19.3043 140.628 19.259C140.991 19.2023 141.325 19.1513 141.631 19.106C141.756 19.0947 141.886 19.0777 142.022 19.055C142.158 19.0323 142.277 19.0267 142.379 19.038C142.492 19.0493 142.583 19.089 142.651 19.157C142.73 19.2137 142.77 19.3213 142.77 19.48C142.77 19.582 142.73 19.6953 142.651 19.82C142.572 19.9333 142.475 20.0467 142.362 20.16C142.26 20.2733 142.152 20.3697 142.039 20.449C141.937 20.5283 141.852 20.5793 141.784 20.602C141.557 20.6813 141.229 20.7493 140.798 20.806C140.379 20.8627 139.852 20.9023 139.217 20.925C139.342 21.3443 139.427 21.7523 139.472 22.149C139.517 22.5457 139.523 22.965 139.489 23.407C139.716 23.373 140.005 23.3277 140.356 23.271C140.719 23.2143 141.098 23.1633 141.495 23.118C141.892 23.0727 142.288 23.05 142.685 23.05C143.082 23.0387 143.439 23.067 143.756 23.135C143.813 23.1463 143.869 23.186 143.926 23.254C143.994 23.3107 144.056 23.3787 144.113 23.458C144.17 23.5373 144.209 23.6167 144.232 23.696C144.266 23.7753 144.277 23.8377 144.266 23.883C144.243 23.951 144.192 24.0303 144.113 24.121C144.045 24.2003 143.96 24.2797 143.858 24.359C143.756 24.427 143.648 24.4893 143.535 24.546C143.433 24.6027 143.331 24.6367 143.229 24.648C143.059 24.6707 142.866 24.665 142.651 24.631C142.436 24.597 142.186 24.5913 141.903 24.614C141.676 24.6253 141.416 24.6423 141.121 24.665C140.838 24.6877 140.543 24.7103 140.237 24.733C139.931 24.7557 139.625 24.7897 139.319 24.835C139.024 24.869 138.758 24.9087 138.52 24.954C138.463 24.9653 138.395 24.954 138.316 24.92C138.237 24.886 138.157 24.8407 138.078 24.784C137.999 24.716 137.925 24.6537 137.857 24.597C137.789 24.529 137.738 24.4667 137.704 24.41C137.659 24.3533 137.642 24.2967 137.653 24.24C137.676 24.1833 137.698 24.1267 137.721 24.07C137.766 23.9227 137.8 23.7073 137.823 23.424C137.857 23.1407 137.874 22.846 137.874 22.54C137.885 22.234 137.88 21.945 137.857 21.673C137.834 21.3897 137.789 21.1687 137.721 21.01C137.71 20.9873 137.704 20.9647 137.704 20.942C137.704 20.9193 137.727 20.8967 137.772 20.874L137.874 20.823ZM143.79 29.238C143.631 29.1927 143.422 29.1473 143.161 29.102C142.912 29.0567 142.651 29.017 142.379 28.983C142.107 28.9377 141.852 28.9037 141.614 28.881C141.376 28.8583 141.2 28.8413 141.087 28.83C140.328 28.7847 139.506 28.7847 138.622 28.83C137.738 28.864 136.871 28.9603 136.021 29.119C135.919 29.1417 135.811 29.1303 135.698 29.085C135.585 29.0397 135.517 29 135.494 28.966C135.471 28.9093 135.483 28.8073 135.528 28.66C135.573 28.5127 135.624 28.4163 135.681 28.371C135.749 28.3143 135.862 28.252 136.021 28.184C136.18 28.1047 136.35 28.031 136.531 27.963C136.712 27.895 136.888 27.8383 137.058 27.793C137.239 27.7363 137.381 27.7023 137.483 27.691C138.027 27.623 138.645 27.5777 139.336 27.555C140.039 27.5323 140.736 27.5323 141.427 27.555C142.118 27.5663 142.776 27.606 143.399 27.674C144.022 27.7307 144.538 27.81 144.946 27.912C145.003 27.9233 145.076 27.963 145.167 28.031C145.258 28.099 145.343 28.1783 145.422 28.269C145.513 28.3597 145.592 28.456 145.66 28.558C145.739 28.66 145.79 28.7563 145.813 28.847C145.824 28.9037 145.796 28.9773 145.728 29.068C145.671 29.17 145.598 29.2493 145.507 29.306C145.45 29.34 145.331 29.374 145.15 29.408C144.98 29.4533 144.821 29.476 144.674 29.476C144.663 29.476 144.612 29.4647 144.521 29.442C144.43 29.4193 144.328 29.391 144.215 29.357C144.102 29.323 144 29.2947 143.909 29.272C143.83 29.2493 143.79 29.238 143.79 29.238ZM161.279 21.979C161.472 21.9337 161.699 21.894 161.959 21.86C162.22 21.826 162.43 21.8203 162.588 21.843C162.656 21.8543 162.736 21.894 162.826 21.962C162.917 22.0187 163.008 22.0923 163.098 22.183C163.189 22.2737 163.268 22.37 163.336 22.472C163.416 22.5627 163.472 22.642 163.506 22.71C163.552 22.8007 163.58 22.897 163.591 22.999C163.614 23.101 163.569 23.186 163.455 23.254C163.353 23.322 163.217 23.3673 163.047 23.39C162.877 23.4127 162.696 23.424 162.503 23.424C162.311 23.424 162.107 23.4183 161.891 23.407C161.687 23.3843 161.483 23.3617 161.279 23.339C161.279 23.6677 161.268 23.9963 161.245 24.325C161.223 24.6537 161.177 24.9767 161.109 25.294C161.053 25.6113 160.968 25.923 160.854 26.229C160.741 26.535 160.582 26.824 160.378 27.096C160.242 27.2887 160.112 27.385 159.987 27.385C159.942 27.385 159.902 27.334 159.868 27.232C159.834 27.13 159.8 27.011 159.766 26.875C159.744 26.7277 159.727 26.5803 159.715 26.433C159.704 26.2743 159.698 26.144 159.698 26.042C159.698 25.498 159.698 24.8803 159.698 24.189C159.698 23.4977 159.698 22.8063 159.698 22.115C159.698 21.4237 159.693 20.7777 159.681 20.177C159.681 19.565 159.67 19.072 159.647 18.698C159.647 18.5507 159.602 18.4487 159.511 18.392C159.285 18.256 159.075 18.1087 158.882 17.95C158.701 17.78 158.531 17.5817 158.372 17.355C158.35 17.321 158.316 17.219 158.27 17.049C158.225 16.879 158.214 16.7373 158.236 16.624C158.248 16.5447 158.276 16.4937 158.321 16.471C158.378 16.4483 158.429 16.4427 158.474 16.454C158.905 16.5447 159.302 16.6977 159.664 16.913C160.038 17.117 160.418 17.3493 160.803 17.61C161.007 17.746 161.138 17.8763 161.194 18.001C161.251 18.1257 161.279 18.29 161.279 18.494V21.979ZM156.859 28.677C156.859 28.7677 156.854 28.8527 156.842 28.932C156.831 29.0113 156.803 29.0963 156.757 29.187C157.041 29.2097 157.352 29.2097 157.692 29.187C158.032 29.1757 158.372 29.1473 158.712 29.102C159.052 29.068 159.381 29.017 159.698 28.949C160.027 28.881 160.327 28.8073 160.599 28.728C160.679 28.7053 160.786 28.7167 160.922 28.762C161.07 28.796 161.211 28.8527 161.347 28.932C161.483 29.0113 161.602 29.0963 161.704 29.187C161.806 29.289 161.857 29.3853 161.857 29.476C161.869 29.544 161.852 29.612 161.806 29.68C161.772 29.7593 161.721 29.833 161.653 29.901C161.597 29.969 161.534 30.0257 161.466 30.071C161.398 30.1277 161.342 30.1673 161.296 30.19C161.024 30.3033 160.696 30.3997 160.31 30.479C159.936 30.5583 159.528 30.6207 159.086 30.666C158.644 30.7113 158.191 30.7397 157.726 30.751C157.262 30.7623 156.808 30.7623 156.366 30.751C156.298 30.751 156.242 30.7453 156.196 30.734C156.162 30.7227 156.117 30.7057 156.06 30.683C155.936 30.6377 155.811 30.5583 155.686 30.445C155.573 30.343 155.465 30.224 155.363 30.088C155.273 29.952 155.199 29.816 155.142 29.68C155.086 29.5553 155.063 29.4477 155.074 29.357C155.108 28.9603 155.154 28.6033 155.21 28.286C155.267 27.9573 155.267 27.6457 155.21 27.351C155.176 27.1923 155.052 27.0167 154.836 26.824C154.632 26.6313 154.423 26.4047 154.207 26.144C154.162 26.0987 154.168 26.0477 154.224 25.991C154.281 25.9343 154.36 25.889 154.462 25.855C154.564 25.821 154.678 25.7983 154.802 25.787C154.927 25.7757 155.04 25.787 155.142 25.821C155.596 25.9797 155.93 26.1667 156.145 26.382C156.361 26.586 156.485 26.7277 156.519 26.807C156.565 26.909 156.604 27.0393 156.638 27.198C156.684 27.3567 156.718 27.5267 156.74 27.708C156.763 27.878 156.786 28.0537 156.808 28.235C156.831 28.405 156.848 28.5523 156.859 28.677ZM154.122 19.548C154.542 19.5027 154.978 19.446 155.431 19.378C155.896 19.31 156.264 19.2193 156.536 19.106C156.616 19.0833 156.678 19.0663 156.723 19.055C156.769 19.0323 156.837 19.0323 156.927 19.055C157.109 19.0777 157.301 19.157 157.505 19.293C157.709 19.4177 157.862 19.5423 157.964 19.667C158.021 19.7237 158.044 19.786 158.032 19.854C158.032 19.922 158.015 20.0183 157.981 20.143C157.902 20.449 157.851 20.7437 157.828 21.027C157.806 21.299 157.794 21.5767 157.794 21.86C157.794 22.132 157.794 22.4097 157.794 22.693C157.794 22.9763 157.777 23.271 157.743 23.577C157.732 23.645 157.692 23.7413 157.624 23.866C157.568 23.9793 157.488 24.0927 157.386 24.206C157.296 24.308 157.194 24.4043 157.08 24.495C156.978 24.5857 156.882 24.6423 156.791 24.665C156.667 24.699 156.474 24.7103 156.213 24.699C155.964 24.6763 155.698 24.6423 155.414 24.597C155.131 24.5403 154.865 24.4667 154.615 24.376C154.377 24.2853 154.213 24.1833 154.122 24.07L154.309 23.594C154.366 23.4353 154.502 23.339 154.717 23.305C154.774 23.2937 154.887 23.288 155.057 23.288C155.227 23.288 155.409 23.288 155.601 23.288C155.805 23.288 155.992 23.288 156.162 23.288C156.344 23.288 156.463 23.2823 156.519 23.271C156.451 23.2257 156.389 23.0783 156.332 22.829C156.287 22.5683 156.253 22.285 156.23 21.979C156.219 21.673 156.225 21.384 156.247 21.112C156.27 20.8287 156.315 20.636 156.383 20.534C156.27 20.5227 156.123 20.5227 155.941 20.534C155.771 20.534 155.596 20.5453 155.414 20.568C155.233 20.5793 155.057 20.5963 154.887 20.619C154.729 20.6303 154.598 20.636 154.496 20.636C154.247 20.636 153.986 20.534 153.714 20.33C153.442 20.126 153.255 19.8993 153.153 19.65L154.122 19.548ZM151.147 20.075C151.181 19.9957 151.255 19.939 151.368 19.905C151.493 19.871 151.629 19.854 151.776 19.854C151.924 19.8427 152.065 19.8483 152.201 19.871C152.349 19.8937 152.456 19.9163 152.524 19.939C152.853 20.0637 153.114 20.262 153.306 20.534C153.51 20.7947 153.669 21.1177 153.782 21.503C153.816 21.5937 153.839 21.741 153.85 21.945C153.862 22.149 153.867 22.3643 153.867 22.591C153.867 22.8177 153.856 23.0387 153.833 23.254C153.822 23.458 153.794 23.6167 153.748 23.73C153.703 23.8547 153.646 23.9623 153.578 24.053C153.522 24.1437 153.448 24.24 153.357 24.342C153.301 24.3987 153.244 24.4327 153.187 24.444C153.142 24.444 153.08 24.41 153 24.342C152.932 24.2853 152.853 24.206 152.762 24.104C152.683 23.9907 152.643 23.866 152.643 23.73C152.632 23.4013 152.604 23.084 152.558 22.778C152.524 22.4607 152.445 22.1433 152.32 21.826C152.264 21.69 152.196 21.588 152.116 21.52C152.037 21.452 151.969 21.4067 151.912 21.384C151.833 21.35 151.742 21.2763 151.64 21.163C151.55 21.0383 151.465 20.908 151.385 20.772C151.306 20.636 151.238 20.5057 151.181 20.381C151.136 20.245 151.125 20.143 151.147 20.075ZM170.348 26.331C170.393 26.1723 170.422 26.0023 170.433 25.821C170.444 25.6397 170.444 25.481 170.433 25.345C170.172 25.3563 169.838 25.3903 169.43 25.447C169.033 25.4923 168.614 25.566 168.172 25.668C168.081 25.6907 167.985 25.702 167.883 25.702C167.792 25.6907 167.685 25.6397 167.56 25.549C167.492 25.4923 167.401 25.4073 167.288 25.294C167.186 25.1693 167.107 25.0617 167.05 24.971C167.016 24.9257 166.982 24.8633 166.948 24.784C166.914 24.7047 166.914 24.6367 166.948 24.58C166.993 24.5233 167.107 24.5007 167.288 24.512C167.447 24.5233 167.605 24.529 167.764 24.529C167.923 24.5177 168.076 24.5063 168.223 24.495C168.733 24.4723 169.192 24.427 169.6 24.359C170.019 24.291 170.388 24.2117 170.705 24.121C170.83 24.087 170.966 24.104 171.113 24.172C171.272 24.24 171.413 24.3307 171.538 24.444C171.674 24.5573 171.782 24.682 171.861 24.818C171.952 24.954 171.997 25.073 171.997 25.175C171.997 25.2657 171.969 25.3677 171.912 25.481C171.855 25.5943 171.782 25.7077 171.691 25.821C171.612 25.923 171.521 26.025 171.419 26.127C171.328 26.229 171.238 26.3083 171.147 26.365C171.17 26.3877 171.192 26.399 171.215 26.399C171.306 26.4783 171.385 26.5803 171.453 26.705C171.521 26.8183 171.555 26.9203 171.555 27.011C171.555 27.1357 171.504 27.215 171.402 27.249C171.3 27.2717 171.187 27.2943 171.062 27.317C170.62 27.3737 170.144 27.4133 169.634 27.436C169.135 27.4587 168.648 27.4927 168.172 27.538C168.195 27.5607 168.229 27.6003 168.274 27.657C168.319 27.7023 168.348 27.7363 168.359 27.759C168.404 27.8723 168.438 28.031 168.461 28.235C168.484 28.439 168.467 28.6543 168.41 28.881C168.739 28.8923 169.09 28.898 169.464 28.898C169.838 28.8867 170.212 28.8753 170.586 28.864C170.96 28.8413 171.328 28.813 171.691 28.779C172.054 28.745 172.382 28.6997 172.677 28.643C172.722 28.6317 172.785 28.6147 172.864 28.592C172.955 28.5693 173.04 28.5523 173.119 28.541C173.21 28.5183 173.289 28.507 173.357 28.507C173.425 28.4957 173.47 28.5013 173.493 28.524C173.606 28.66 173.652 28.7847 173.629 28.898C173.618 28.966 173.572 29.0453 173.493 29.136C173.414 29.2267 173.317 29.3173 173.204 29.408C173.091 29.51 172.972 29.595 172.847 29.663C172.734 29.7423 172.632 29.799 172.541 29.833C172.246 29.9123 171.906 29.9803 171.521 30.037C171.136 30.0937 170.739 30.139 170.331 30.173C169.923 30.2183 169.526 30.2467 169.141 30.258C168.767 30.2807 168.438 30.292 168.155 30.292C168.03 30.292 167.894 30.292 167.747 30.292C167.6 30.292 167.401 30.2807 167.152 30.258C167.016 30.2353 166.897 30.2013 166.795 30.156C166.704 30.122 166.653 30.02 166.642 29.85C166.631 29.6913 166.631 29.5043 166.642 29.289C166.653 29.085 166.699 28.9263 166.778 28.813C166.982 28.5863 167.084 28.3483 167.084 28.099C167.095 27.8497 167.056 27.6117 166.965 27.385C166.84 27.3057 166.733 27.198 166.642 27.062C166.551 26.926 166.517 26.773 166.54 26.603C166.54 26.535 166.693 26.4953 166.999 26.484C168.098 26.416 169.215 26.365 170.348 26.331ZM168.087 19.701C168.518 19.599 168.892 19.514 169.209 19.446C169.538 19.3667 169.827 19.3043 170.076 19.259C170.325 19.2137 170.552 19.1853 170.756 19.174C170.96 19.1513 171.164 19.1457 171.368 19.157C171.47 19.157 171.578 19.1967 171.691 19.276C171.816 19.344 171.929 19.4347 172.031 19.548C172.144 19.65 172.229 19.7577 172.286 19.871C172.354 19.9843 172.382 20.0863 172.371 20.177C172.348 20.2677 172.297 20.3357 172.218 20.381C172.15 20.415 172.065 20.4433 171.963 20.466C171.861 20.4887 171.759 20.5057 171.657 20.517C171.555 20.517 171.47 20.517 171.402 20.517C171.164 20.5283 170.881 20.5453 170.552 20.568C170.235 20.5907 169.9 20.619 169.549 20.653C169.198 20.6757 168.841 20.7097 168.478 20.755C168.127 20.789 167.804 20.8287 167.509 20.874C167.43 20.8853 167.333 20.8627 167.22 20.806C167.107 20.7493 166.999 20.6757 166.897 20.585C166.795 20.4943 166.71 20.398 166.642 20.296C166.574 20.194 166.551 20.109 166.574 20.041C166.619 19.8597 166.67 19.7067 166.727 19.582C166.795 19.446 166.852 19.3043 166.897 19.157C166.954 19.0097 166.988 18.8453 166.999 18.664C167.022 18.4713 167.016 18.2333 166.982 17.95C166.982 17.916 166.954 17.8763 166.897 17.831C166.852 17.7743 166.801 17.7177 166.744 17.661C166.687 17.593 166.631 17.525 166.574 17.457C166.517 17.3777 166.483 17.2983 166.472 17.219C166.449 17.1397 166.478 17.032 166.557 16.896C166.636 16.76 166.716 16.6977 166.795 16.709C166.897 16.7203 166.993 16.726 167.084 16.726C167.186 16.7147 167.299 16.7033 167.424 16.692C167.787 16.6693 168.076 16.6467 168.291 16.624C168.518 16.59 168.699 16.5617 168.835 16.539C168.971 16.5163 169.084 16.4937 169.175 16.471C169.266 16.437 169.368 16.4087 169.481 16.386C169.617 16.352 169.759 16.3577 169.906 16.403C170.053 16.4483 170.184 16.5107 170.297 16.59C170.41 16.6693 170.501 16.7543 170.569 16.845C170.648 16.9357 170.688 17.0093 170.688 17.066C170.688 17.1907 170.592 17.2927 170.399 17.372C170.218 17.4513 170.025 17.5193 169.821 17.576C169.47 17.644 169.141 17.7007 168.835 17.746C168.54 17.7913 168.212 17.8423 167.849 17.899C167.974 18.1483 168.053 18.4373 168.087 18.766C168.121 19.0947 168.121 19.4063 168.087 19.701ZM164.041 22.2C164.041 22.1093 164.143 22.0527 164.347 22.03C164.562 22.0073 164.795 21.9903 165.044 21.979C165.713 21.9563 166.353 21.9393 166.965 21.928C167.577 21.9053 168.189 21.8827 168.801 21.86C169.424 21.8373 170.065 21.8147 170.722 21.792C171.379 21.758 172.088 21.724 172.847 21.69C172.892 21.69 172.955 21.69 173.034 21.69C173.113 21.6787 173.193 21.6787 173.272 21.69C173.363 21.69 173.442 21.7013 173.51 21.724C173.589 21.7353 173.64 21.758 173.663 21.792C173.731 21.8827 173.708 22.03 173.595 22.234C173.493 22.4267 173.357 22.6193 173.187 22.812C173.028 22.982 172.847 23.084 172.643 23.118C172.439 23.1407 172.207 23.152 171.946 23.152C171.64 23.152 171.192 23.152 170.603 23.152C170.014 23.152 169.39 23.152 168.733 23.152C168.076 23.152 167.43 23.152 166.795 23.152C166.16 23.152 165.645 23.152 165.248 23.152C165.123 23.152 164.987 23.118 164.84 23.05C164.704 22.9707 164.574 22.88 164.449 22.778C164.336 22.676 164.239 22.574 164.16 22.472C164.081 22.3587 164.041 22.268 164.041 22.2ZM184.106 26.416C184.106 26.7447 184.101 27.1243 184.089 27.555C184.078 27.9743 184.038 28.3937 183.97 28.813C183.902 29.221 183.795 29.6007 183.647 29.952C183.511 30.3033 183.313 30.5697 183.052 30.751C182.928 30.8417 182.831 30.8473 182.763 30.768C182.707 30.6887 182.678 30.6207 182.678 30.564C182.69 30.1447 182.695 29.7537 182.695 29.391C182.695 29.0397 182.695 28.7053 182.695 28.388C182.695 28.0707 182.695 27.7647 182.695 27.47C182.695 27.1753 182.695 26.8807 182.695 26.586V19.939C182.695 19.7917 182.69 19.65 182.678 19.514C182.678 19.3667 182.673 19.2193 182.661 19.072C182.661 19.004 182.639 18.953 182.593 18.919C182.435 18.8283 182.265 18.7093 182.083 18.562C181.902 18.4147 181.721 18.256 181.539 18.086C181.369 17.9047 181.205 17.7233 181.046 17.542C180.899 17.3607 180.774 17.1907 180.672 17.032C180.638 16.9867 180.633 16.93 180.655 16.862C180.678 16.8053 180.723 16.726 180.791 16.624C180.859 16.5107 180.956 16.454 181.08 16.454C181.171 16.4653 181.256 16.488 181.335 16.522C181.415 16.5447 181.494 16.573 181.573 16.607C181.891 16.743 182.225 16.93 182.576 17.168C182.939 17.406 183.262 17.627 183.545 17.831C183.738 17.967 183.874 18.0917 183.953 18.205C184.044 18.307 184.095 18.477 184.106 18.715V26.416ZM179.414 22.064C179.38 22.0867 179.301 22.115 179.176 22.149C179.052 22.1717 178.893 22.2 178.7 22.234C178.519 22.268 178.315 22.302 178.088 22.336C177.873 22.3587 177.658 22.3813 177.442 22.404C177.216 22.4267 177.046 22.4323 176.932 22.421C176.83 22.4097 176.689 22.3587 176.507 22.268C176.462 22.2453 176.388 22.1943 176.286 22.115C176.196 22.0357 176.099 21.9507 175.997 21.86C175.895 21.758 175.805 21.6617 175.725 21.571C175.646 21.4803 175.601 21.4067 175.589 21.35C175.578 21.316 175.595 21.265 175.64 21.197C175.686 21.1177 175.737 21.061 175.793 21.027C175.839 21.0043 175.878 20.993 175.912 20.993C175.946 20.993 175.986 20.9987 176.031 21.01C176.19 21.044 176.377 21.0667 176.592 21.078C176.808 21.0893 177.046 21.0893 177.306 21.078C177.839 21.0553 178.36 21.01 178.87 20.942C179.392 20.874 179.822 20.789 180.162 20.687C180.321 20.6417 180.457 20.6473 180.57 20.704C180.695 20.7493 180.871 20.925 181.097 21.231C181.188 21.3557 181.194 21.5143 181.114 21.707C180.752 22.557 180.349 23.373 179.907 24.155C179.477 24.937 178.933 25.6567 178.275 26.314C178.196 26.3933 178.071 26.4783 177.901 26.569C177.731 26.6597 177.544 26.7447 177.34 26.824C177.148 26.892 176.949 26.9543 176.745 27.011C176.553 27.0677 176.388 27.1017 176.252 27.113C176.162 27.1243 176.054 27.1073 175.929 27.062C175.816 27.0167 175.703 26.9657 175.589 26.909C175.476 26.8523 175.374 26.79 175.283 26.722C175.204 26.654 175.159 26.5973 175.147 26.552C175.136 26.518 175.147 26.4557 175.181 26.365C175.227 26.263 175.266 26.212 175.3 26.212C175.482 26.2007 175.657 26.1667 175.827 26.11C175.997 26.042 176.156 25.9683 176.303 25.889C176.462 25.8097 176.598 25.7247 176.711 25.634C176.836 25.5433 176.938 25.464 177.017 25.396C177.289 25.158 177.527 24.9143 177.731 24.665C177.935 24.4043 178.128 24.138 178.309 23.866C178.502 23.5827 178.683 23.2937 178.853 22.999C179.023 22.7043 179.21 22.3927 179.414 22.064Z" fill="white"/>
<rect x="14.5" y="6.5" width="279" height="34" rx="4.5" stroke="white" stroke-dasharray="5 5"/>
<defs>
<filter id="filter0_d_34_28" x="0" y="0" width="308" height="54" filterUnits="userSpaceOnUse" color-interpolation-filters="sRGB">
<feFlood flood-opacity="0" result="BackgroundImageFix"/>
<feColorMatrix in="SourceAlpha" type="matrix" values="0 0 0 0 0 0 0 0 0 0 0 0 0 0 0 0 0 0 127 0" result="hardAlpha"/>
<feOffset dy="4"/>
<feGaussianBlur stdDeviation="2"/>
<feComposite in2="hardAlpha" operator="out"/>
<feColorMatrix type="matrix" values="0 0 0 0 0 0 0 0 0 0 0 0 0 0 0 0 0 0 0.25 0"/>
<feBlend mode="normal" in2="BackgroundImageFix" result="effect1_dropShadow_34_28"/>
<feBlend mode="normal" in="SourceGraphic" in2="effect1_dropShadow_34_28" result="shape"/>
</filter>
</defs>
</svg>
