<svg width="308" height="54" viewBox="0 0 308 54" fill="none" xmlns="http://www.w3.org/2000/svg">
<rect width="308" height="54" fill="white"/>
<g filter="url(#filter0_d_0_1)">
<rect x="4" width="300" height="46" rx="5" fill="#CF9952"/>
<rect x="4.5" y="0.5" width="299" height="45" rx="4.5" stroke="#CF9952"/>
</g>
<path d="M142.406 20.772C142.463 20.6247 142.497 20.4433 142.508 20.228C142.531 20.0013 142.531 19.7973 142.508 19.616C142.1 19.6273 141.681 19.6443 141.25 19.667C140.831 19.6897 140.383 19.7293 139.907 19.786C139.714 19.8087 139.55 19.8257 139.414 19.837C139.278 19.8483 139.142 19.8087 139.006 19.718C138.87 19.6387 138.723 19.5083 138.564 19.327C138.405 19.1457 138.309 19.004 138.275 18.902C138.241 18.8227 138.241 18.7547 138.275 18.698C138.32 18.6413 138.388 18.613 138.479 18.613C138.604 18.613 138.774 18.613 138.989 18.613C139.216 18.6017 139.397 18.596 139.533 18.596C140.009 18.5847 140.57 18.562 141.216 18.528C141.873 18.4827 142.525 18.4203 143.171 18.341C143.25 18.3297 143.347 18.358 143.46 18.426C143.585 18.494 143.704 18.579 143.817 18.681C143.93 18.783 144.027 18.8963 144.106 19.021C144.185 19.1343 144.225 19.2307 144.225 19.31C144.225 19.378 144.208 19.4687 144.174 19.582C144.14 19.6953 144.089 19.82 144.021 19.956C143.964 20.0807 143.891 20.211 143.8 20.347C143.721 20.4717 143.63 20.585 143.528 20.687C143.664 20.687 143.766 20.721 143.834 20.789C143.981 20.9363 144.083 21.1347 144.14 21.384C144.174 21.52 144.168 21.6447 144.123 21.758C144.089 21.86 143.976 21.9223 143.783 21.945C143.318 22.013 142.723 22.0527 141.998 22.064C141.284 22.0753 140.485 22.0527 139.601 21.996C139.68 22.098 139.737 22.217 139.771 22.353C139.816 22.489 139.845 22.625 139.856 22.761C139.867 22.8857 139.867 22.9933 139.856 23.084C139.856 23.1747 139.856 23.22 139.856 23.22C140.241 23.2087 140.666 23.1917 141.131 23.169C141.607 23.1463 142.083 23.1237 142.559 23.101C143.035 23.067 143.488 23.033 143.919 22.999C144.361 22.9537 144.729 22.9083 145.024 22.863C145.092 22.8517 145.177 22.88 145.279 22.948C145.392 23.016 145.494 23.101 145.585 23.203C145.676 23.305 145.744 23.4183 145.789 23.543C145.846 23.6563 145.863 23.7527 145.84 23.832C145.829 23.9 145.789 23.9567 145.721 24.002C145.664 24.0473 145.596 24.087 145.517 24.121C145.438 24.1437 145.353 24.1663 145.262 24.189C145.171 24.2003 145.092 24.2117 145.024 24.223C144.673 24.291 144.225 24.359 143.681 24.427C143.137 24.4837 142.565 24.5347 141.964 24.58C141.375 24.614 140.791 24.6423 140.213 24.665C139.635 24.6877 139.136 24.6877 138.717 24.665C138.332 24.6423 138.128 24.4667 138.105 24.138C138.094 24.0587 138.082 23.9793 138.071 23.9C138.071 23.8093 138.077 23.73 138.088 23.662C138.099 23.5827 138.111 23.5317 138.122 23.509C138.133 23.4863 138.162 23.4467 138.207 23.39C138.275 23.2993 138.332 23.1803 138.377 23.033C138.422 22.8857 138.456 22.7327 138.479 22.574C138.513 22.4153 138.53 22.268 138.53 22.132C138.53 21.9847 138.513 21.8713 138.479 21.792C138.388 21.758 138.309 21.7013 138.241 21.622C138.173 21.5427 138.116 21.4633 138.071 21.384C138.026 21.2933 137.997 21.2083 137.986 21.129C137.975 21.0383 137.98 20.976 138.003 20.942C138.026 20.908 138.167 20.891 138.428 20.891C138.621 20.891 138.87 20.891 139.176 20.891C139.493 20.8797 139.833 20.8683 140.196 20.857C140.57 20.8457 140.95 20.8343 141.335 20.823C141.72 20.8117 142.077 20.7947 142.406 20.772ZM142.049 28.32C142.026 28.0933 142.009 27.8553 141.998 27.606C141.987 27.3453 141.981 27.1867 141.981 27.13C141.981 27.0507 141.964 26.994 141.93 26.96C141.839 26.8693 141.737 26.7673 141.624 26.654C141.511 26.5407 141.397 26.4217 141.284 26.297C141.182 26.1723 141.086 26.042 140.995 25.906C140.916 25.77 140.859 25.634 140.825 25.498C140.814 25.4527 140.848 25.4073 140.927 25.362C141.006 25.3053 141.063 25.277 141.097 25.277C141.494 25.277 141.879 25.3337 142.253 25.447C142.627 25.549 142.978 25.753 143.307 26.059C143.398 26.1497 143.454 26.2403 143.477 26.331C143.511 26.4103 143.528 26.535 143.528 26.705C143.517 27.0223 143.494 27.3057 143.46 27.555C143.437 27.793 143.398 28.048 143.341 28.32C144.35 28.3427 145.296 28.4673 146.18 28.694C146.237 28.7053 146.31 28.745 146.401 28.813C146.492 28.881 146.577 28.9603 146.656 29.051C146.747 29.153 146.826 29.255 146.894 29.357C146.973 29.4703 147.024 29.5723 147.047 29.663C147.058 29.7197 147.03 29.7933 146.962 29.884C146.905 29.986 146.832 30.0653 146.741 30.122C146.684 30.156 146.565 30.19 146.384 30.224C146.214 30.2693 146.055 30.292 145.908 30.292C145.319 30.0653 144.701 29.8953 144.055 29.782C143.42 29.6687 142.718 29.612 141.947 29.612C141.641 29.612 141.369 29.6177 141.131 29.629C140.893 29.6403 140.632 29.6573 140.349 29.68C140.066 29.714 139.737 29.7537 139.363 29.799C138.989 29.8557 138.513 29.9237 137.935 30.003C137.833 30.0257 137.725 30.003 137.612 29.935C137.499 29.8783 137.431 29.833 137.408 29.799C137.385 29.7423 137.397 29.6403 137.442 29.493C137.487 29.3457 137.538 29.2493 137.595 29.204C137.663 29.1473 137.776 29.0793 137.935 29C138.094 28.932 138.264 28.8697 138.445 28.813C138.626 28.745 138.802 28.6883 138.972 28.643C139.153 28.5977 139.295 28.5693 139.397 28.558C139.862 28.5013 140.309 28.456 140.74 28.422C141.182 28.3767 141.618 28.3427 142.049 28.32ZM158.258 29C157.396 28.762 156.558 28.5977 155.742 28.507C154.937 28.405 154.059 28.3427 153.107 28.32C152.835 28.3087 152.512 28.3087 152.138 28.32C151.764 28.32 151.361 28.337 150.931 28.371C150.5 28.3937 150.052 28.4333 149.588 28.49C149.134 28.5353 148.687 28.6033 148.245 28.694C148.143 28.7167 148.035 28.6997 147.922 28.643C147.808 28.575 147.74 28.524 147.718 28.49C147.695 28.4333 147.706 28.3313 147.752 28.184C147.797 28.0367 147.848 27.9403 147.905 27.895C147.973 27.8383 148.086 27.776 148.245 27.708C148.403 27.6287 148.573 27.5607 148.755 27.504C148.936 27.436 149.112 27.3793 149.282 27.334C149.463 27.2887 149.605 27.2603 149.707 27.249C150.375 27.1697 151.112 27.1073 151.917 27.062C152.721 27.0053 153.526 26.9827 154.331 26.994C155.135 26.994 155.9 27.028 156.626 27.096C157.362 27.164 157.997 27.2773 158.53 27.436C158.586 27.4587 158.66 27.504 158.751 27.572C158.841 27.6287 158.926 27.7023 159.006 27.793C159.096 27.8837 159.176 27.98 159.244 28.082C159.323 28.184 159.374 28.2803 159.397 28.371C159.408 28.4277 159.38 28.507 159.312 28.609C159.255 28.6997 159.181 28.7733 159.091 28.83C159.034 28.864 158.915 28.9037 158.734 28.949C158.564 28.983 158.405 29 158.258 29ZM156.201 19.225C156.269 19.259 156.348 19.3157 156.439 19.395C156.529 19.463 156.614 19.5423 156.694 19.633C156.784 19.7237 156.858 19.8143 156.915 19.905C156.971 19.9843 157.005 20.0523 157.017 20.109C157.062 20.3017 157.079 20.4887 157.068 20.67C157.056 20.84 157.045 21.0157 157.034 21.197C157.022 21.4237 157.005 21.7013 156.983 22.03C156.96 22.3587 156.932 22.693 156.898 23.033C156.864 23.373 156.824 23.7017 156.779 24.019C156.733 24.325 156.688 24.5743 156.643 24.767C156.609 24.9257 156.552 25.107 156.473 25.311C156.405 25.5037 156.325 25.685 156.235 25.855C156.144 26.0137 156.048 26.1383 155.946 26.229C155.844 26.3197 155.742 26.331 155.64 26.263C155.572 26.2063 155.526 26.1043 155.504 25.957C155.481 25.8097 155.47 25.6397 155.47 25.447C155.47 25.1977 155.464 24.8463 155.453 24.393C155.453 23.9397 155.447 23.4693 155.436 22.982C155.424 22.4947 155.407 22.03 155.385 21.588C155.362 21.1347 155.328 20.7777 155.283 20.517C155.011 20.585 154.682 20.653 154.297 20.721C153.911 20.7777 153.515 20.8287 153.107 20.874C152.71 20.908 152.325 20.942 151.951 20.976C151.588 21.01 151.293 21.0327 151.067 21.044C151.021 21.044 150.942 21.027 150.829 20.993C150.715 20.9477 150.596 20.8967 150.472 20.84C150.358 20.772 150.251 20.704 150.149 20.636C150.047 20.5567 149.979 20.483 149.945 20.415C149.899 20.3357 149.899 20.262 149.945 20.194C149.99 20.1147 150.143 20.0353 150.404 19.956C150.664 19.8767 150.982 19.803 151.356 19.735C151.741 19.6557 152.155 19.5877 152.597 19.531C153.039 19.463 153.458 19.4063 153.855 19.361C154.251 19.3043 154.603 19.259 154.909 19.225C155.215 19.191 155.419 19.1683 155.521 19.157C155.668 19.1457 155.781 19.14 155.861 19.14C155.951 19.14 156.065 19.1683 156.201 19.225ZM160.478 21.469C160.478 21.061 160.569 20.6983 160.75 20.381C160.943 20.0637 161.192 19.7973 161.498 19.582C161.804 19.3553 162.161 19.1853 162.569 19.072C162.977 18.9473 163.408 18.885 163.861 18.885C164.371 18.885 164.774 18.9587 165.068 19.106C165.374 19.2533 165.658 19.5423 165.918 19.973C166.134 20.347 166.247 20.7437 166.258 21.163C166.281 21.5823 166.219 21.9847 166.071 22.37C165.924 22.744 165.703 23.084 165.408 23.39C165.125 23.696 164.785 23.917 164.388 24.053C164.094 24.155 163.776 24.2117 163.436 24.223C163.096 24.2343 162.762 24.2003 162.433 24.121C162.105 24.0417 161.799 23.9113 161.515 23.73C161.243 23.5487 161.034 23.3163 160.886 23.033C160.728 22.7497 160.614 22.4777 160.546 22.217C160.49 21.945 160.467 21.6957 160.478 21.469ZM167.873 17.882C167.805 17.8027 167.72 17.695 167.618 17.559C167.528 17.423 167.426 17.2757 167.312 17.117C167.21 16.9583 167.114 16.7997 167.023 16.641C166.933 16.4823 166.865 16.3407 166.819 16.216C166.797 16.1593 166.768 16.0573 166.734 15.91C166.712 15.7627 166.729 15.6663 166.785 15.621C166.853 15.5643 166.944 15.5417 167.057 15.553C167.171 15.5643 167.295 15.5983 167.431 15.655C167.567 15.7003 167.703 15.7627 167.839 15.842C167.975 15.91 168.106 15.9893 168.23 16.08C168.355 16.1593 168.468 16.2443 168.57 16.335C168.672 16.4143 168.752 16.4823 168.808 16.539C168.967 16.709 169.092 16.9017 169.182 17.117C169.273 17.3323 169.335 17.559 169.369 17.797C169.415 18.0237 169.443 18.2617 169.454 18.511C169.466 18.749 169.471 18.987 169.471 19.225C169.471 19.4063 169.466 19.65 169.454 19.956C169.454 20.2507 169.449 20.5737 169.437 20.925C169.426 21.2763 169.415 21.639 169.403 22.013C169.392 22.3757 169.375 22.7213 169.352 23.05C169.341 23.3787 169.324 23.6677 169.301 23.917C169.29 24.155 169.279 24.325 169.267 24.427C169.245 24.665 169.205 24.9143 169.148 25.175C169.092 25.4243 169.024 25.6567 168.944 25.872C168.865 26.0873 168.78 26.263 168.689 26.399C168.61 26.535 168.531 26.5973 168.451 26.586C168.338 26.5633 168.247 26.4443 168.179 26.229C168.111 26.0137 168.055 25.77 168.009 25.498C167.975 25.226 167.953 24.9653 167.941 24.716C167.93 24.4667 167.924 24.3023 167.924 24.223L167.873 17.882ZM165.646 28.592C165.646 28.6827 165.641 28.7847 165.629 28.898C165.618 29 165.59 29.0963 165.544 29.187C165.828 29.2097 166.083 29.2153 166.309 29.204C166.547 29.204 166.774 29.187 166.989 29.153C167.205 29.119 167.42 29.0737 167.635 29.017C167.851 28.9603 168.094 28.8923 168.366 28.813C168.446 28.7903 168.553 28.7847 168.689 28.796C168.837 28.8073 168.978 28.8413 169.114 28.898C169.262 28.9433 169.392 29.0113 169.505 29.102C169.63 29.1927 169.721 29.3003 169.777 29.425C169.8 29.493 169.794 29.5667 169.76 29.646C169.726 29.7253 169.675 29.8047 169.607 29.884C169.551 29.9633 169.483 30.0313 169.403 30.088C169.335 30.1447 169.279 30.1843 169.233 30.207C168.939 30.3317 168.644 30.4337 168.349 30.513C168.066 30.5923 167.766 30.649 167.448 30.683C167.131 30.7283 166.785 30.751 166.411 30.751C166.037 30.7623 165.618 30.7623 165.153 30.751C165.085 30.751 165.029 30.7453 164.983 30.734C164.949 30.7227 164.904 30.7057 164.847 30.683C164.723 30.6377 164.598 30.5583 164.473 30.445C164.36 30.343 164.252 30.224 164.15 30.088C164.06 29.952 163.98 29.816 163.912 29.68C163.856 29.5553 163.833 29.4477 163.844 29.357C163.878 28.9603 163.924 28.592 163.98 28.252C164.048 27.9007 164.054 27.5777 163.997 27.283C163.963 27.1243 163.839 26.9487 163.623 26.756C163.419 26.5633 163.21 26.3367 162.994 26.076C162.949 26.0307 162.955 25.9797 163.011 25.923C163.068 25.8663 163.147 25.821 163.249 25.787C163.351 25.753 163.465 25.7303 163.589 25.719C163.714 25.7077 163.827 25.719 163.929 25.753C164.383 25.9117 164.711 26.0987 164.915 26.314C165.131 26.518 165.255 26.6597 165.289 26.739C165.335 26.841 165.374 26.9713 165.408 27.13C165.454 27.2887 165.488 27.4587 165.51 27.64C165.544 27.81 165.573 27.98 165.595 28.15C165.618 28.32 165.635 28.4673 165.646 28.592ZM162.603 20.381C162.309 20.5623 162.116 20.806 162.025 21.112C161.935 21.418 161.991 21.7127 162.195 21.996C162.354 22.2227 162.541 22.404 162.756 22.54C162.972 22.676 163.215 22.7327 163.487 22.71C163.759 22.6987 164.014 22.6137 164.252 22.455C164.502 22.285 164.694 22.064 164.83 21.792C165.012 21.4293 165.017 21.0837 164.847 20.755C164.689 20.4263 164.422 20.1997 164.048 20.075C163.822 20.0183 163.572 20.024 163.3 20.092C163.028 20.1487 162.796 20.245 162.603 20.381Z" fill="white"/>
<rect x="14.5" y="6.5" width="279" height="34" rx="4.5" stroke="white" stroke-dasharray="5 5"/>
<defs>
<filter id="filter0_d_0_1" x="0" y="0" width="308" height="54" filterUnits="userSpaceOnUse" color-interpolation-filters="sRGB">
<feFlood flood-opacity="0" result="BackgroundImageFix"/>
<feColorMatrix in="SourceAlpha" type="matrix" values="0 0 0 0 0 0 0 0 0 0 0 0 0 0 0 0 0 0 127 0" result="hardAlpha"/>
<feOffset dy="4"/>
<feGaussianBlur stdDeviation="2"/>
<feComposite in2="hardAlpha" operator="out"/>
<feColorMatrix type="matrix" values="0 0 0 0 0 0 0 0 0 0 0 0 0 0 0 0 0 0 0.25 0"/>
<feBlend mode="normal" in2="BackgroundImageFix" result="effect1_dropShadow_0_1"/>
<feBlend mode="normal" in="SourceGraphic" in2="effect1_dropShadow_0_1" result="shape"/>
</filter>
</defs>
</svg>
