<svg width="308" height="54" viewBox="0 0 308 54" fill="none" xmlns="http://www.w3.org/2000/svg">
<rect width="308" height="54" fill="white"/>
<g filter="url(#filter0_d_0_1)">
<rect x="4" width="300" height="46" rx="5" fill="white"/>
<rect x="4.5" y="0.5" width="299" height="45" rx="4.5" stroke="#CF9952"/>
</g>
<path d="M136.406 20.772C136.463 20.6247 136.497 20.4433 136.508 20.228C136.531 20.0013 136.531 19.7973 136.508 19.616C136.1 19.6273 135.681 19.6443 135.25 19.667C134.831 19.6897 134.383 19.7293 133.907 19.786C133.714 19.8087 133.55 19.8257 133.414 19.837C133.278 19.8483 133.142 19.8087 133.006 19.718C132.87 19.6387 132.723 19.5083 132.564 19.327C132.405 19.1457 132.309 19.004 132.275 18.902C132.241 18.8227 132.241 18.7547 132.275 18.698C132.32 18.6413 132.388 18.613 132.479 18.613C132.604 18.613 132.774 18.613 132.989 18.613C133.216 18.6017 133.397 18.596 133.533 18.596C134.009 18.5847 134.57 18.562 135.216 18.528C135.873 18.4827 136.525 18.4203 137.171 18.341C137.25 18.3297 137.347 18.358 137.46 18.426C137.585 18.494 137.704 18.579 137.817 18.681C137.93 18.783 138.027 18.8963 138.106 19.021C138.185 19.1343 138.225 19.2307 138.225 19.31C138.225 19.378 138.208 19.4687 138.174 19.582C138.14 19.6953 138.089 19.82 138.021 19.956C137.964 20.0807 137.891 20.211 137.8 20.347C137.721 20.4717 137.63 20.585 137.528 20.687C137.664 20.687 137.766 20.721 137.834 20.789C137.981 20.9363 138.083 21.1347 138.14 21.384C138.174 21.52 138.168 21.6447 138.123 21.758C138.089 21.86 137.976 21.9223 137.783 21.945C137.318 22.013 136.723 22.0527 135.998 22.064C135.284 22.0753 134.485 22.0527 133.601 21.996C133.68 22.098 133.737 22.217 133.771 22.353C133.816 22.489 133.845 22.625 133.856 22.761C133.867 22.8857 133.867 22.9933 133.856 23.084C133.856 23.1747 133.856 23.22 133.856 23.22C134.241 23.2087 134.666 23.1917 135.131 23.169C135.607 23.1463 136.083 23.1237 136.559 23.101C137.035 23.067 137.488 23.033 137.919 22.999C138.361 22.9537 138.729 22.9083 139.024 22.863C139.092 22.8517 139.177 22.88 139.279 22.948C139.392 23.016 139.494 23.101 139.585 23.203C139.676 23.305 139.744 23.4183 139.789 23.543C139.846 23.6563 139.863 23.7527 139.84 23.832C139.829 23.9 139.789 23.9567 139.721 24.002C139.664 24.0473 139.596 24.087 139.517 24.121C139.438 24.1437 139.353 24.1663 139.262 24.189C139.171 24.2003 139.092 24.2117 139.024 24.223C138.673 24.291 138.225 24.359 137.681 24.427C137.137 24.4837 136.565 24.5347 135.964 24.58C135.375 24.614 134.791 24.6423 134.213 24.665C133.635 24.6877 133.136 24.6877 132.717 24.665C132.332 24.6423 132.128 24.4667 132.105 24.138C132.094 24.0587 132.082 23.9793 132.071 23.9C132.071 23.8093 132.077 23.73 132.088 23.662C132.099 23.5827 132.111 23.5317 132.122 23.509C132.133 23.4863 132.162 23.4467 132.207 23.39C132.275 23.2993 132.332 23.1803 132.377 23.033C132.422 22.8857 132.456 22.7327 132.479 22.574C132.513 22.4153 132.53 22.268 132.53 22.132C132.53 21.9847 132.513 21.8713 132.479 21.792C132.388 21.758 132.309 21.7013 132.241 21.622C132.173 21.5427 132.116 21.4633 132.071 21.384C132.026 21.2933 131.997 21.2083 131.986 21.129C131.975 21.0383 131.98 20.976 132.003 20.942C132.026 20.908 132.167 20.891 132.428 20.891C132.621 20.891 132.87 20.891 133.176 20.891C133.493 20.8797 133.833 20.8683 134.196 20.857C134.57 20.8457 134.95 20.8343 135.335 20.823C135.72 20.8117 136.077 20.7947 136.406 20.772ZM136.049 28.32C136.026 28.0933 136.009 27.8553 135.998 27.606C135.987 27.3453 135.981 27.1867 135.981 27.13C135.981 27.0507 135.964 26.994 135.93 26.96C135.839 26.8693 135.737 26.7673 135.624 26.654C135.511 26.5407 135.397 26.4217 135.284 26.297C135.182 26.1723 135.086 26.042 134.995 25.906C134.916 25.77 134.859 25.634 134.825 25.498C134.814 25.4527 134.848 25.4073 134.927 25.362C135.006 25.3053 135.063 25.277 135.097 25.277C135.494 25.277 135.879 25.3337 136.253 25.447C136.627 25.549 136.978 25.753 137.307 26.059C137.398 26.1497 137.454 26.2403 137.477 26.331C137.511 26.4103 137.528 26.535 137.528 26.705C137.517 27.0223 137.494 27.3057 137.46 27.555C137.437 27.793 137.398 28.048 137.341 28.32C138.35 28.3427 139.296 28.4673 140.18 28.694C140.237 28.7053 140.31 28.745 140.401 28.813C140.492 28.881 140.577 28.9603 140.656 29.051C140.747 29.153 140.826 29.255 140.894 29.357C140.973 29.4703 141.024 29.5723 141.047 29.663C141.058 29.7197 141.03 29.7933 140.962 29.884C140.905 29.986 140.832 30.0653 140.741 30.122C140.684 30.156 140.565 30.19 140.384 30.224C140.214 30.2693 140.055 30.292 139.908 30.292C139.319 30.0653 138.701 29.8953 138.055 29.782C137.42 29.6687 136.718 29.612 135.947 29.612C135.641 29.612 135.369 29.6177 135.131 29.629C134.893 29.6403 134.632 29.6573 134.349 29.68C134.066 29.714 133.737 29.7537 133.363 29.799C132.989 29.8557 132.513 29.9237 131.935 30.003C131.833 30.0257 131.725 30.003 131.612 29.935C131.499 29.8783 131.431 29.833 131.408 29.799C131.385 29.7423 131.397 29.6403 131.442 29.493C131.487 29.3457 131.538 29.2493 131.595 29.204C131.663 29.1473 131.776 29.0793 131.935 29C132.094 28.932 132.264 28.8697 132.445 28.813C132.626 28.745 132.802 28.6883 132.972 28.643C133.153 28.5977 133.295 28.5693 133.397 28.558C133.862 28.5013 134.309 28.456 134.74 28.422C135.182 28.3767 135.618 28.3427 136.049 28.32ZM152.258 29C151.396 28.762 150.558 28.5977 149.742 28.507C148.937 28.405 148.059 28.3427 147.107 28.32C146.835 28.3087 146.512 28.3087 146.138 28.32C145.764 28.32 145.361 28.337 144.931 28.371C144.5 28.3937 144.052 28.4333 143.588 28.49C143.134 28.5353 142.687 28.6033 142.245 28.694C142.143 28.7167 142.035 28.6997 141.922 28.643C141.808 28.575 141.74 28.524 141.718 28.49C141.695 28.4333 141.706 28.3313 141.752 28.184C141.797 28.0367 141.848 27.9403 141.905 27.895C141.973 27.8383 142.086 27.776 142.245 27.708C142.403 27.6287 142.573 27.5607 142.755 27.504C142.936 27.436 143.112 27.3793 143.282 27.334C143.463 27.2887 143.605 27.2603 143.707 27.249C144.375 27.1697 145.112 27.1073 145.917 27.062C146.721 27.0053 147.526 26.9827 148.331 26.994C149.135 26.994 149.9 27.028 150.626 27.096C151.362 27.164 151.997 27.2773 152.53 27.436C152.586 27.4587 152.66 27.504 152.751 27.572C152.841 27.6287 152.926 27.7023 153.006 27.793C153.096 27.8837 153.176 27.98 153.244 28.082C153.323 28.184 153.374 28.2803 153.397 28.371C153.408 28.4277 153.38 28.507 153.312 28.609C153.255 28.6997 153.181 28.7733 153.091 28.83C153.034 28.864 152.915 28.9037 152.734 28.949C152.564 28.983 152.405 29 152.258 29ZM150.201 19.225C150.269 19.259 150.348 19.3157 150.439 19.395C150.529 19.463 150.614 19.5423 150.694 19.633C150.784 19.7237 150.858 19.8143 150.915 19.905C150.971 19.9843 151.005 20.0523 151.017 20.109C151.062 20.3017 151.079 20.4887 151.068 20.67C151.056 20.84 151.045 21.0157 151.034 21.197C151.022 21.4237 151.005 21.7013 150.983 22.03C150.96 22.3587 150.932 22.693 150.898 23.033C150.864 23.373 150.824 23.7017 150.779 24.019C150.733 24.325 150.688 24.5743 150.643 24.767C150.609 24.9257 150.552 25.107 150.473 25.311C150.405 25.5037 150.325 25.685 150.235 25.855C150.144 26.0137 150.048 26.1383 149.946 26.229C149.844 26.3197 149.742 26.331 149.64 26.263C149.572 26.2063 149.526 26.1043 149.504 25.957C149.481 25.8097 149.47 25.6397 149.47 25.447C149.47 25.1977 149.464 24.8463 149.453 24.393C149.453 23.9397 149.447 23.4693 149.436 22.982C149.424 22.4947 149.407 22.03 149.385 21.588C149.362 21.1347 149.328 20.7777 149.283 20.517C149.011 20.585 148.682 20.653 148.297 20.721C147.911 20.7777 147.515 20.8287 147.107 20.874C146.71 20.908 146.325 20.942 145.951 20.976C145.588 21.01 145.293 21.0327 145.067 21.044C145.021 21.044 144.942 21.027 144.829 20.993C144.715 20.9477 144.596 20.8967 144.472 20.84C144.358 20.772 144.251 20.704 144.149 20.636C144.047 20.5567 143.979 20.483 143.945 20.415C143.899 20.3357 143.899 20.262 143.945 20.194C143.99 20.1147 144.143 20.0353 144.404 19.956C144.664 19.8767 144.982 19.803 145.356 19.735C145.741 19.6557 146.155 19.5877 146.597 19.531C147.039 19.463 147.458 19.4063 147.855 19.361C148.251 19.3043 148.603 19.259 148.909 19.225C149.215 19.191 149.419 19.1683 149.521 19.157C149.668 19.1457 149.781 19.14 149.861 19.14C149.951 19.14 150.065 19.1683 150.201 19.225ZM158.405 25.447C158.122 25.549 157.793 25.617 157.419 25.651C157.045 25.6737 156.683 25.6397 156.331 25.549C155.991 25.4583 155.691 25.2997 155.43 25.073C155.17 24.8463 155.005 24.5347 154.937 24.138C154.915 23.9907 154.858 23.866 154.767 23.764C154.688 23.662 154.597 23.5713 154.495 23.492C154.405 23.4013 154.32 23.3163 154.24 23.237C154.172 23.1463 154.138 23.033 154.138 22.897C154.127 22.4777 154.206 22.0867 154.376 21.724C154.546 21.3613 154.784 21.044 155.09 20.772C155.396 20.4887 155.759 20.2677 156.178 20.109C156.609 19.939 157.079 19.8427 157.589 19.82C158.043 19.7973 158.439 19.8597 158.779 20.007C159.119 20.143 159.403 20.3357 159.629 20.585C159.856 20.8343 160.026 21.1233 160.139 21.452C160.264 21.7693 160.326 22.1037 160.326 22.455C160.326 22.7497 160.281 23.05 160.19 23.356C160.1 23.6507 159.969 23.934 159.799 24.206C159.629 24.478 159.425 24.7273 159.187 24.954C158.949 25.1693 158.689 25.3337 158.405 25.447ZM156.229 23.288C156.433 23.5713 156.615 23.7923 156.773 23.951C156.932 24.0983 157.136 24.1493 157.385 24.104C157.691 24.07 157.975 23.9623 158.235 23.781C158.496 23.5883 158.689 23.3447 158.813 23.05C158.915 22.846 158.949 22.6363 158.915 22.421C158.881 22.1943 158.802 21.996 158.677 21.826C158.564 21.6447 158.411 21.4973 158.218 21.384C158.026 21.2707 157.81 21.214 157.572 21.214C157.334 21.214 157.108 21.2593 156.892 21.35C156.677 21.4293 156.484 21.5143 156.314 21.605C156.099 21.7637 155.952 21.911 155.872 22.047C155.793 22.183 155.759 22.319 155.77 22.455C155.782 22.591 155.827 22.727 155.906 22.863C155.997 22.999 156.105 23.1407 156.229 23.288ZM163.131 23.764C163.245 23.7527 163.426 23.7357 163.675 23.713C163.936 23.679 164.18 23.6677 164.406 23.679C164.486 23.6903 164.588 23.7243 164.712 23.781C164.837 23.8377 164.95 23.9057 165.052 23.985C165.166 24.0643 165.262 24.1493 165.341 24.24C165.432 24.3307 165.483 24.4157 165.494 24.495C165.494 24.5517 165.477 24.6197 165.443 24.699C165.421 24.767 165.387 24.8407 165.341 24.92C165.307 24.988 165.268 25.056 165.222 25.124C165.177 25.192 165.143 25.243 165.12 25.277C165.086 25.3223 165.047 25.362 165.001 25.396C164.956 25.43 164.865 25.4527 164.729 25.464C164.65 25.464 164.531 25.464 164.372 25.464C164.214 25.464 164.049 25.4527 163.879 25.43C163.709 25.4073 163.551 25.3733 163.403 25.328C163.256 25.2827 163.154 25.226 163.097 25.158V26.501C163.097 26.8977 163.075 27.3227 163.029 27.776C162.995 28.218 162.927 28.6543 162.825 29.085C162.735 29.5157 162.616 29.9237 162.468 30.309C162.332 30.6943 162.162 31.0173 161.958 31.278C161.868 31.4027 161.788 31.4707 161.72 31.482C161.664 31.5047 161.607 31.499 161.55 31.465C161.516 31.4423 161.46 31.38 161.38 31.278C161.301 31.1873 161.244 31.0797 161.21 30.955C161.199 30.8983 161.205 30.8133 161.227 30.7C161.25 30.5867 161.278 30.4903 161.312 30.411C161.346 30.1617 161.375 29.8387 161.397 29.442C161.42 29.0567 161.437 28.6543 161.448 28.235C161.471 27.8043 161.482 27.385 161.482 26.977C161.494 26.569 161.499 26.212 161.499 25.906V18.647C161.499 18.4997 161.454 18.3977 161.363 18.341C161.137 18.205 160.927 18.0577 160.734 17.899C160.542 17.7403 160.372 17.5477 160.224 17.321C160.202 17.287 160.168 17.185 160.122 17.015C160.077 16.8337 160.066 16.6863 160.088 16.573C160.1 16.4937 160.128 16.4427 160.173 16.42C160.23 16.3973 160.281 16.3917 160.326 16.403C160.746 16.4937 161.182 16.6467 161.635 16.862C162.1 17.066 162.48 17.287 162.774 17.525C162.944 17.661 163.046 17.797 163.08 17.933C163.114 18.069 163.131 18.2333 163.131 18.426V23.764ZM172.956 26.739C173.126 26.909 173.183 27.0677 173.126 27.215C173.081 27.351 172.996 27.5323 172.871 27.759C172.803 27.8837 172.713 28.031 172.599 28.201C172.486 28.3597 172.384 28.49 172.293 28.592C172.441 28.694 172.639 28.83 172.888 29C173.138 29.1587 173.421 29.3173 173.738 29.476C174.056 29.646 174.396 29.799 174.758 29.935C175.121 30.0823 175.489 30.19 175.863 30.258C175.965 30.2807 176.022 30.3317 176.033 30.411C176.056 30.5017 176.005 30.6093 175.88 30.734C175.722 30.8813 175.512 31.0117 175.251 31.125C174.991 31.2383 174.73 31.295 174.469 31.295C174.39 31.295 174.316 31.2837 174.248 31.261C174.192 31.2497 174.112 31.2213 174.01 31.176C173.829 31.108 173.614 31.0003 173.364 30.853C173.126 30.717 172.888 30.564 172.65 30.394C172.412 30.2353 172.191 30.071 171.987 29.901C171.783 29.7423 171.625 29.6007 171.511 29.476C171.364 29.6347 171.171 29.8047 170.933 29.986C170.707 30.1787 170.457 30.36 170.185 30.53C169.925 30.7 169.653 30.8417 169.369 30.955C169.086 31.0797 168.814 31.1477 168.553 31.159C168.519 31.159 168.44 31.159 168.315 31.159C168.191 31.1703 168.06 31.1703 167.924 31.159C167.788 31.1477 167.664 31.125 167.55 31.091C167.437 31.0683 167.38 31.0287 167.38 30.972C167.38 30.9153 167.431 30.8473 167.533 30.768C167.635 30.7 167.749 30.632 167.873 30.564C167.998 30.496 168.123 30.4337 168.247 30.377C168.372 30.3203 168.463 30.275 168.519 30.241C168.927 30.003 169.296 29.7423 169.624 29.459C169.953 29.187 170.236 28.915 170.474 28.643C170.724 28.3597 170.928 28.0933 171.086 27.844C171.256 27.5947 171.375 27.3907 171.443 27.232C171.398 27.1867 171.336 27.1187 171.256 27.028C171.177 26.9373 171.098 26.8353 171.018 26.722C170.939 26.6087 170.865 26.4953 170.797 26.382C170.729 26.2687 170.684 26.161 170.661 26.059C170.65 26.025 170.644 25.9853 170.644 25.94C170.656 25.8947 170.684 25.8607 170.729 25.838C170.763 25.8153 170.831 25.804 170.933 25.804C171.035 25.804 171.143 25.8097 171.256 25.821C171.381 25.8323 171.5 25.8493 171.613 25.872C171.727 25.8947 171.806 25.9173 171.851 25.94C172.033 26.0307 172.197 26.1327 172.344 26.246C172.231 25.9287 172.146 25.566 172.089 25.158C172.044 24.75 172.01 24.4157 171.987 24.155C171.273 24.1663 170.559 24.1777 169.845 24.189C169.131 24.189 168.383 24.1833 167.601 24.172C167.443 24.172 167.29 24.1663 167.142 24.155C166.995 24.1323 166.87 24.0927 166.768 24.036C166.61 23.9567 166.451 23.832 166.292 23.662C166.134 23.492 166.026 23.356 165.969 23.254C165.947 23.1973 165.947 23.1293 165.969 23.05C165.992 22.9707 166.043 22.931 166.122 22.931C167.584 22.8743 169.08 22.829 170.61 22.795C172.152 22.7497 173.682 22.6987 175.2 22.642C175.393 22.6307 175.552 22.625 175.676 22.625C175.801 22.6137 175.909 22.608 175.999 22.608C176.113 22.608 176.192 22.642 176.237 22.71C176.283 22.778 176.305 22.8403 176.305 22.897C176.305 23.0897 176.26 23.2767 176.169 23.458C176.079 23.628 175.971 23.781 175.846 23.917C175.79 23.9963 175.71 24.0473 175.608 24.07C175.518 24.0813 175.393 24.087 175.234 24.087C175.042 24.087 174.872 24.0927 174.724 24.104C174.588 24.104 174.464 24.104 174.35 24.104C174.237 24.104 174.124 24.104 174.01 24.104C173.897 24.104 173.772 24.104 173.636 24.104C173.625 24.24 173.608 24.4157 173.585 24.631C173.574 24.835 173.546 25.0503 173.5 25.277C173.466 25.5037 173.421 25.7247 173.364 25.94C173.308 26.1553 173.24 26.3367 173.16 26.484C173.092 26.6087 173.019 26.6937 172.939 26.739H172.956ZM168.604 19.327C168.616 18.953 168.701 18.6073 168.859 18.29C169.029 17.9727 169.256 17.7007 169.539 17.474C169.834 17.236 170.174 17.049 170.559 16.913C170.945 16.777 171.364 16.709 171.817 16.709C172.305 16.709 172.713 16.8053 173.041 16.998C173.37 17.1907 173.665 17.5023 173.925 17.933C174.129 18.273 174.231 18.6413 174.231 19.038C174.231 19.4347 174.152 19.82 173.993 20.194C173.846 20.5567 173.625 20.8853 173.33 21.18C173.036 21.4633 172.701 21.673 172.327 21.809C172.169 21.8657 171.999 21.911 171.817 21.945C171.647 21.9677 171.483 21.979 171.324 21.979C170.848 21.979 170.389 21.8827 169.947 21.69C169.517 21.486 169.194 21.1857 168.978 20.789C168.695 20.2903 168.57 19.803 168.604 19.327ZM171.46 20.619C171.676 20.6077 171.885 20.5453 172.089 20.432C172.293 20.3187 172.463 20.1713 172.599 19.99C172.747 19.8087 172.843 19.6103 172.888 19.395C172.945 19.1683 172.934 18.9417 172.854 18.715C172.786 18.545 172.679 18.3977 172.531 18.273C172.384 18.137 172.214 18.0407 172.021 17.984C171.851 17.9387 171.653 17.933 171.426 17.967C171.211 17.9897 171.001 18.0463 170.797 18.137C170.593 18.2277 170.418 18.3523 170.27 18.511C170.123 18.6583 170.032 18.834 169.998 19.038C169.964 19.2307 169.981 19.4233 170.049 19.616C170.117 19.8087 170.219 19.9843 170.355 20.143C170.491 20.2903 170.656 20.4093 170.848 20.5C171.041 20.5907 171.245 20.6303 171.46 20.619Z" fill="#CF9952"/>
<rect x="14.5" y="6.5" width="279" height="34" rx="4.5" stroke="#CF9952" stroke-dasharray="5 5"/>
<defs>
<filter id="filter0_d_0_1" x="0" y="0" width="308" height="54" filterUnits="userSpaceOnUse" color-interpolation-filters="sRGB">
<feFlood flood-opacity="0" result="BackgroundImageFix"/>
<feColorMatrix in="SourceAlpha" type="matrix" values="0 0 0 0 0 0 0 0 0 0 0 0 0 0 0 0 0 0 127 0" result="hardAlpha"/>
<feOffset dy="4"/>
<feGaussianBlur stdDeviation="2"/>
<feComposite in2="hardAlpha" operator="out"/>
<feColorMatrix type="matrix" values="0 0 0 0 0 0 0 0 0 0 0 0 0 0 0 0 0 0 0.25 0"/>
<feBlend mode="normal" in2="BackgroundImageFix" result="effect1_dropShadow_0_1"/>
<feBlend mode="normal" in="SourceGraphic" in2="effect1_dropShadow_0_1" result="shape"/>
</filter>
</defs>
</svg>
